<svg aria-roledescription="er" viewBox="0 0 476.65826416015625 293" style="max-width: 476.658px; background-color: white;" xmlns:xlink="http://www.w3.org/1999/xlink" xmlns="http://www.w3.org/2000/svg" width="100%" id="mermaid-0"><style>#mermaid-0{font-family:"trebuchet ms",verdana,arial,sans-serif;font-size:16px;fill:#000000;}#mermaid-0 .error-icon{fill:#552222;}#mermaid-0 .error-text{fill:#552222;stroke:#552222;}#mermaid-0 .edge-thickness-normal{stroke-width:2px;}#mermaid-0 .edge-thickness-thick{stroke-width:3.5px;}#mermaid-0 .edge-pattern-solid{stroke-dasharray:0;}#mermaid-0 .edge-pattern-dashed{stroke-dasharray:3;}#mermaid-0 .edge-pattern-dotted{stroke-dasharray:2;}#mermaid-0 .marker{fill:#000000;stroke:#000000;}#mermaid-0 .marker.cross{stroke:#000000;}#mermaid-0 svg{font-family:"trebuchet ms",verdana,arial,sans-serif;font-size:16px;}#mermaid-0 .entityBox{fill:#cde498;stroke:#13540c;}#mermaid-0 .attributeBoxOdd{fill:#ffffff;stroke:#13540c;}#mermaid-0 .attributeBoxEven{fill:#f2f2f2;stroke:#13540c;}#mermaid-0 .relationshipLabelBox{fill:hsl(78.1578947368, 58.4615384615%, 84.5098039216%);opacity:0.7;background-color:hsl(78.1578947368, 58.4615384615%, 84.5098039216%);}#mermaid-0 .relationshipLabelBox rect{opacity:0.5;}#mermaid-0 .relationshipLine{stroke:#000000;}#mermaid-0 .entityTitleText{text-anchor:middle;font-size:18px;fill:#000000;}#mermaid-0 :root{--mermaid-font-family:"trebuchet ms",verdana,arial,sans-serif;}</style><g/><defs><marker orient="auto" markerHeight="18" markerWidth="18" refY="9" refX="0" id="ONLY_ONE_START"><path d="M9,0 L9,18 M15,0 L15,18" fill="none" stroke="gray"/></marker></defs><defs><marker orient="auto" markerHeight="18" markerWidth="18" refY="9" refX="18" id="ONLY_ONE_END"><path d="M3,0 L3,18 M9,0 L9,18" fill="none" stroke="gray"/></marker></defs><defs><marker orient="auto" markerHeight="18" markerWidth="30" refY="9" refX="0" id="ZERO_OR_ONE_START"><circle r="6" cy="9" cx="21" fill="white" stroke="gray"/><path d="M9,0 L9,18" fill="none" stroke="gray"/></marker></defs><defs><marker orient="auto" markerHeight="18" markerWidth="30" refY="9" refX="30" id="ZERO_OR_ONE_END"><circle r="6" cy="9" cx="9" fill="white" stroke="gray"/><path d="M21,0 L21,18" fill="none" stroke="gray"/></marker></defs><defs><marker orient="auto" markerHeight="36" markerWidth="45" refY="18" refX="18" id="ONE_OR_MORE_START"><path d="M0,18 Q 18,0 36,18 Q 18,36 0,18 M42,9 L42,27" fill="none" stroke="gray"/></marker></defs><defs><marker orient="auto" markerHeight="36" markerWidth="45" refY="18" refX="27" id="ONE_OR_MORE_END"><path d="M3,9 L3,27 M9,18 Q27,0 45,18 Q27,36 9,18" fill="none" stroke="gray"/></marker></defs><defs><marker orient="auto" markerHeight="36" markerWidth="57" refY="18" refX="18" id="ZERO_OR_MORE_START"><circle r="6" cy="18" cx="48" fill="white" stroke="gray"/><path d="M0,18 Q18,0 36,18 Q18,36 0,18" fill="none" stroke="gray"/></marker></defs><defs><marker orient="auto" markerHeight="36" markerWidth="57" refY="18" refX="39" id="ZERO_OR_MORE_END"><circle r="6" cy="18" cx="9" fill="white" stroke="gray"/><path d="M21,18 Q39,0 57,18 Q39,36 21,18" fill="none" stroke="gray"/></marker></defs><path style="stroke: gray; fill: none;" marker-start="url(#ZERO_OR_MORE_START)" marker-end="url(#ONLY_ONE_END)" d="M84.3671875,86L84.3671875,94.33333333333333C84.3671875,102.66666666666667,84.3671875,119.33333333333333,88.82351548573975,136C93.27984347147951,152.66666666666666,102.192499442959,169.33333333333334,106.64882742869877,177.66666666666666L111.1051554144385,186" class="er relationshipLine"/><path style="stroke: gray; fill: none;" marker-start="url(#ZERO_OR_MORE_START)" marker-end="url(#ONLY_ONE_END)" d="M366.1774315891496,75.5L372.25172877790465,85.58333333333333C378.32602596665964,95.66666666666667,390.47462034416964,115.83333333333333,396.5489175329247,136C402.6232147216797,156.16666666666666,402.6232147216797,176.33333333333334,402.6232147216797,186.41666666666666L402.6232147216797,196.5" class="er relationshipLine"/><path style="stroke: gray; fill: none;" marker-start="url(#ZERO_OR_MORE_START)" marker-end="url(#ONLY_ONE_END)" d="M322.51321769622433,75.5L309.01947828852025,85.58333333333333C295.5257388808162,95.66666666666667,268.5382600654081,115.83333333333333,245.49161568889835,134.25C222.4449713123886,152.66666666666666,203.33916137477718,169.33333333333334,193.78625640597147,177.66666666666666L184.23335143716577,186" class="er relationshipLine"/><g transform="translate(66.25738525390625,186 )" id="entity-habits-0b184ba7-e99f-4675-aee3-f0ce6bd99fbd"><rect height="87" width="136.2196044921875" y="0" x="0" class="er entityBox"/><text style="dominant-baseline: middle; text-anchor: middle; font-size: 12px;" transform="translate(68.10980224609375,12)" y="0" x="0" id="text-entity-habits-0b184ba7-e99f-4675-aee3-f0ce6bd99fbd" class="er entityLabel">habits</text><rect height="21" width="54.113128662109375" y="24" x="0" class="er attributeBoxOdd"/><text style="dominant-baseline: middle; font-size: 10.2px;" transform="translate(5,34.5)" y="0" x="0" id="text-entity-habits-0b184ba7-e99f-4675-aee3-f0ce6bd99fbd-attr-1-type" class="er entityLabel">String</text><rect height="21" width="58.311492919921875" y="24" x="54.113128662109375" class="er attributeBoxOdd"/><text style="dominant-baseline: middle; font-size: 10.2px;" transform="translate(59.113128662109375,34.5)" y="0" x="0" id="text-entity-habits-0b184ba7-e99f-4675-aee3-f0ce6bd99fbd-attr-1-name" class="er entityLabel">id</text><rect height="21" width="23.79498291015625" y="24" x="112.42462158203125" class="er attributeBoxOdd"/><text style="dominant-baseline: middle; font-size: 10.2px;" transform="translate(117.42462158203125,34.5)" y="0" x="0" id="text-entity-habits-0b184ba7-e99f-4675-aee3-f0ce6bd99fbd-attr-1-key" class="er entityLabel">PK</text><rect height="21" width="54.113128662109375" y="45" x="0" class="er attributeBoxEven"/><text style="dominant-baseline: middle; font-size: 10.2px;" transform="translate(5,55.5)" y="0" x="0" id="text-entity-habits-0b184ba7-e99f-4675-aee3-f0ce6bd99fbd-attr-2-type" class="er entityLabel">String</text><rect height="21" width="58.311492919921875" y="45" x="54.113128662109375" class="er attributeBoxEven"/><text style="dominant-baseline: middle; font-size: 10.2px;" transform="translate(59.113128662109375,55.5)" y="0" x="0" id="text-entity-habits-0b184ba7-e99f-4675-aee3-f0ce6bd99fbd-attr-2-name" class="er entityLabel">title</text><rect height="21" width="23.79498291015625" y="45" x="112.42462158203125" class="er attributeBoxEven"/><text style="dominant-baseline: middle; font-size: 10.2px;" transform="translate(117.42462158203125,55.5)" y="0" x="0" id="text-entity-habits-0b184ba7-e99f-4675-aee3-f0ce6bd99fbd-attr-2-key" class="er entityLabel"/><rect height="21" width="54.113128662109375" y="66" x="0" class="er attributeBoxOdd"/><text style="dominant-baseline: middle; font-size: 10.2px;" transform="translate(5,76.5)" y="0" x="0" id="text-entity-habits-0b184ba7-e99f-4675-aee3-f0ce6bd99fbd-attr-3-type" class="er entityLabel">DateTime</text><rect height="21" width="58.311492919921875" y="66" x="54.113128662109375" class="er attributeBoxOdd"/><text style="dominant-baseline: middle; font-size: 10.2px;" transform="translate(59.113128662109375,76.5)" y="0" x="0" id="text-entity-habits-0b184ba7-e99f-4675-aee3-f0ce6bd99fbd-attr-3-name" class="er entityLabel">created_at</text><rect height="21" width="23.79498291015625" y="66" x="112.42462158203125" class="er attributeBoxOdd"/><text style="dominant-baseline: middle; font-size: 10.2px;" transform="translate(117.42462158203125,76.5)" y="0" x="0" id="text-entity-habits-0b184ba7-e99f-4675-aee3-f0ce6bd99fbd-attr-3-key" class="er entityLabel"/></g><g transform="translate(20,20 )" id="entity-habitsweekdays-a58a6a31-b31b-47ae-ab1c-cc4db6cd502f"><rect height="66" width="128.734375" y="0" x="0" class="er entityBox"/><text style="dominant-baseline: middle; text-anchor: middle; font-size: 12px;" transform="translate(64.3671875,12)" y="0" x="0" id="text-entity-habitsweekdays-a58a6a31-b31b-47ae-ab1c-cc4db6cd502f" class="er entityLabel">habits_week_days</text><rect height="21" width="40.351216634114586" y="24" x="0" class="er attributeBoxOdd"/><text style="dominant-baseline: middle; font-size: 10.2px;" transform="translate(5,34.5)" y="0" x="0" id="text-entity-habitsweekdays-a58a6a31-b31b-47ae-ab1c-cc4db6cd502f-attr-1-type" class="er entityLabel">String</text><rect height="21" width="61.18401082356771" y="24" x="40.351216634114586" class="er attributeBoxOdd"/><text style="dominant-baseline: middle; font-size: 10.2px;" transform="translate(45.351216634114586,34.5)" y="0" x="0" id="text-entity-habitsweekdays-a58a6a31-b31b-47ae-ab1c-cc4db6cd502f-attr-1-name" class="er entityLabel">id</text><rect height="21" width="27.199147542317707" y="24" x="101.5352274576823" class="er attributeBoxOdd"/><text style="dominant-baseline: middle; font-size: 10.2px;" transform="translate(106.5352274576823,34.5)" y="0" x="0" id="text-entity-habitsweekdays-a58a6a31-b31b-47ae-ab1c-cc4db6cd502f-attr-1-key" class="er entityLabel">PK</text><rect height="21" width="40.351216634114586" y="45" x="0" class="er attributeBoxEven"/><text style="dominant-baseline: middle; font-size: 10.2px;" transform="translate(5,55.5)" y="0" x="0" id="text-entity-habitsweekdays-a58a6a31-b31b-47ae-ab1c-cc4db6cd502f-attr-2-type" class="er entityLabel">Int</text><rect height="21" width="61.18401082356771" y="45" x="40.351216634114586" class="er attributeBoxEven"/><text style="dominant-baseline: middle; font-size: 10.2px;" transform="translate(45.351216634114586,55.5)" y="0" x="0" id="text-entity-habitsweekdays-a58a6a31-b31b-47ae-ab1c-cc4db6cd502f-attr-2-name" class="er entityLabel">week_day</text><rect height="21" width="27.199147542317707" y="45" x="101.5352274576823" class="er attributeBoxEven"/><text style="dominant-baseline: middle; font-size: 10.2px;" transform="translate(106.5352274576823,55.5)" y="0" x="0" id="text-entity-habitsweekdays-a58a6a31-b31b-47ae-ab1c-cc4db6cd502f-attr-2-key" class="er entityLabel"/></g><g transform="translate(348.58815002441406,196.5 )" id="entity-days-2f20fd00-e824-4d9b-80ab-373846972c7e"><rect height="66" width="108.07012939453125" y="0" x="0" class="er entityBox"/><text style="dominant-baseline: middle; text-anchor: middle; font-size: 12px;" transform="translate(54.035064697265625,12)" y="0" x="0" id="text-entity-days-2f20fd00-e824-4d9b-80ab-373846972c7e" class="er entityLabel">days</text><rect height="21" width="54.113128662109375" y="24" x="0" class="er attributeBoxOdd"/><text style="dominant-baseline: middle; font-size: 10.2px;" transform="translate(5,34.5)" y="0" x="0" id="text-entity-days-2f20fd00-e824-4d9b-80ab-373846972c7e-attr-1-type" class="er entityLabel">String</text><rect height="21" width="30.162017822265625" y="24" x="54.113128662109375" class="er attributeBoxOdd"/><text style="dominant-baseline: middle; font-size: 10.2px;" transform="translate(59.113128662109375,34.5)" y="0" x="0" id="text-entity-days-2f20fd00-e824-4d9b-80ab-373846972c7e-attr-1-name" class="er entityLabel">id</text><rect height="21" width="23.79498291015625" y="24" x="84.275146484375" class="er attributeBoxOdd"/><text style="dominant-baseline: middle; font-size: 10.2px;" transform="translate(89.275146484375,34.5)" y="0" x="0" id="text-entity-days-2f20fd00-e824-4d9b-80ab-373846972c7e-attr-1-key" class="er entityLabel">PK</text><rect height="21" width="54.113128662109375" y="45" x="0" class="er attributeBoxEven"/><text style="dominant-baseline: middle; font-size: 10.2px;" transform="translate(5,55.5)" y="0" x="0" id="text-entity-days-2f20fd00-e824-4d9b-80ab-373846972c7e-attr-2-type" class="er entityLabel">DateTime</text><rect height="21" width="30.162017822265625" y="45" x="54.113128662109375" class="er attributeBoxEven"/><text style="dominant-baseline: middle; font-size: 10.2px;" transform="translate(59.113128662109375,55.5)" y="0" x="0" id="text-entity-days-2f20fd00-e824-4d9b-80ab-373846972c7e-attr-2-name" class="er entityLabel">date</text><rect height="21" width="23.79498291015625" y="45" x="84.275146484375" class="er attributeBoxEven"/><text style="dominant-baseline: middle; font-size: 10.2px;" transform="translate(89.275146484375,55.5)" y="0" x="0" id="text-entity-days-2f20fd00-e824-4d9b-80ab-373846972c7e-attr-2-key" class="er entityLabel"/></g><g transform="translate(302.6232147216797,30.5 )" id="entity-dayshabits-61628c30-1484-47e4-91c9-b0173fc187fc"><rect height="45" width="100" y="0" x="0" class="er entityBox"/><text style="dominant-baseline: middle; text-anchor: middle; font-size: 12px;" transform="translate(50,12)" y="0" x="0" id="text-entity-dayshabits-61628c30-1484-47e4-91c9-b0173fc187fc" class="er entityLabel">days_habits</text><rect height="21" width="43.94526163736979" y="24" x="0" class="er attributeBoxOdd"/><text style="dominant-baseline: middle; font-size: 10.2px;" transform="translate(5,34.5)" y="0" x="0" id="text-entity-dayshabits-61628c30-1484-47e4-91c9-b0173fc187fc-attr-1-type" class="er entityLabel">String</text><rect height="21" width="25.261545817057293" y="24" x="43.94526163736979" class="er attributeBoxOdd"/><text style="dominant-baseline: middle; font-size: 10.2px;" transform="translate(48.94526163736979,34.5)" y="0" x="0" id="text-entity-dayshabits-61628c30-1484-47e4-91c9-b0173fc187fc-attr-1-name" class="er entityLabel">id</text><rect height="21" width="30.793192545572918" y="24" x="69.20680745442708" class="er attributeBoxOdd"/><text style="dominant-baseline: middle; font-size: 10.2px;" transform="translate(74.20680745442708,34.5)" y="0" x="0" id="text-entity-dayshabits-61628c30-1484-47e4-91c9-b0173fc187fc-attr-1-key" class="er entityLabel">PK</text></g><rect height="14" width="26.6875" y="131.1707000732422" x="76.08501434326172" class="er relationshipLabelBox"/><text style="text-anchor: middle; dominant-baseline: middle; font-size: 12px;" y="138.1707000732422" x="89.42876434326172" id="rel1" class="er relationshipLabel">habit</text><rect height="14" width="19.359375" y="125.74607849121094" x="385.837646484375" class="er relationshipLabelBox"/><text style="text-anchor: middle; dominant-baseline: middle; font-size: 12px;" y="132.74607849121094" x="395.517333984375" id="rel2" class="er relationshipLabel">day</text><rect height="14" width="26.6875" y="122.06608581542969" x="238.67861938476562" class="er relationshipLabelBox"/><text style="text-anchor: middle; dominant-baseline: middle; font-size: 12px;" y="129.0660858154297" x="252.02236938476562" id="rel3" class="er relationshipLabel">habit</text></svg>